<?xml version="1.0" encoding="utf-8"?>
<!-- Generator: Adobe Illustrator 23.0.2, SVG Export Plug-In . SVG Version: 6.00 Build 0)  -->
<svg version="1.1" id="Calque_1" xmlns="http://www.w3.org/2000/svg" xmlns:xlink="http://www.w3.org/1999/xlink" x="0px" y="0px"
	 viewBox="0 0 512 512" style="enable-background:new 0 0 512 512;" xml:space="preserve">
<style type="text/css">
	.st0{fill:#070504;}
	.st1{fill:#5E5457;}
	.st2{fill:#EC972F;}
	.st3{fill:#E99530;}
	.st4{fill:#FBFBFB;}
</style>
<path class="st0" d="M286.2,419.2c2.8,8.1,4.9,16.3,1.7,24.8c-3.6,9.9-9.8,17-20.9,18.2c-11.3,1.2-19.1-4.3-24.4-13.8
	c-4.6-8.3-8.1-17.1-13.5-24.9c-1.1-4.2-3.6-7.7-5.5-11.6c-1.7-2.8-2.4-6.3-4.8-8.8c-1.5-4.3-3.7-8.3-6.3-12c-0.6-5.3-3.5-3.6-6.3-2
	c-20.6,4.4-36.3-2.7-47.9-19.9c-0.4-0.6-0.3-1.7-1.5-1.2h0.2c-1.1-4.6-3.1-8.7-5.2-12.9c-0.4-5-0.7-10.1-1.1-15.1
	c1.1-19.2,9.2-34.3,26.1-44.3c7.4-4.4,14.6-9.2,21.7-14.1c7-4.7,14.5-8.7,20.9-14.2c7.7-2.3,10.2-9.4,14.4-15.1
	c2.9-4.1,6.3-8,8.4-12.7c5.3-5.9,9.5-12.6,13.7-19.3c3.5-4,6.5-8.4,9.1-13.1c4.2-5,8-10.2,11.1-16c1.3-1.5,2.6-3,3.8-4.6
	c9.4-13.3,18.7-26.7,28-40.1c9.9-14.2,25.1-13.2,33.1,2.2c5,9.6,9.8,19.2,14.8,28.8c2.5,4.8,3.7,11.8,8,13.8
	c4.3,2.1,10.7-0.1,16.2-0.4c3.9,0,7.8,0.1,11.8,0.1c1.9,3.7,3.6,7.5,5.7,11.1s3,8,6.5,10.8c-1.3,1.5,0.1,3.2,0.6,3.7
	c3.2,3.5,2.2,6.9,0.4,10.4c-2.7,6-7.3,10.8-8.5,17.7c-1.4,8,0.7,14.6,4.5,21.2c3.3,4.5,4.2,10.4,8.6,14.2c0.3,4.6,2.8,8.1,5.3,11.7
	c0.2,1.4,0.3,2.9,0.5,4.3c2.1,10.6-4.3,21.2-14.5,24.3c-3.6,0.8-7.4,1.1-10.8,2.7c-5.1,1-10.2,2-15.3,2.9c-0.5,0.1-1.3-0.2-1,0.9
	l0.1-0.1c-4.1-0.1-8,0.8-11.7,2.4c-6.9,1.1-13.9,2.1-20.4,4.8c-5.8-0.4-11.1,1.8-16.6,3c-15.7,3.3-31.4,6.9-47.1,10.3
	c2.1,7.2,8.1,12.6,8,20.4c0.2,3.3-2.2,4.7-4.4,6.5c-3.6,2.9-8.6,4.1-10.9,8.5c-2.3,0.3-3.8,1.1-2,3.7c1.1,1.6,2,3.3,3,4.9
	c1.7,3.5,3.4,7.1,5.1,10.6c1.1,2.5,2.1,5,3.9,7.1C282.2,412.9,283.5,416.4,286.2,419.2z M273.4,335.6c1.1-0.3,2.3-0.5,3.4-0.8
	c20.6-4.5,41.2-9,61.8-13.5c13-2.9,25.9-5.9,38.9-8.7c3.5-0.8,4.7-2.2,2.7-5.5c-0.8-1.3-1.4-2.7-2.1-4
	c-8.7-16.8-17.5-33.6-26.1-50.5c-13.7-26.7-27.4-53.5-41.1-80.3c-2.5-4.9-3.3-4.8-6.5-0.2c-6.7,9.7-13.3,19.4-20.1,29.1
	c-15.3,21.9-30.6,43.8-45.9,65.6c-1.4,2-1.7,3.5-0.6,5.8c10.2,19.8,20.4,39.6,30.5,59.4C269.4,334.3,270.7,335.8,273.4,335.6z
	 M162.8,343.4c-0.3,3,0.9,7.9,2.8,12.8c7.2,18.1,26.8,26.7,42.6,17.4c16.7-9.8,32.7-20.8,49-31.4c1.8-1.1,2.7-2.5,1.4-5
	c-9.6-18.4-19.1-36.8-28.5-55.3c-1.7-3.3-3.1-3.5-6-1.5c-14.6,9.7-29.4,19.3-44.2,28.8C168.5,316.7,163,327.4,162.8,343.4z
	 M403.7,300.3c0.3-2.6-1.1-4.5-2.2-6.6c-18.9-36.9-37.8-73.7-56.7-110.6c-4.6-9-9.1-18.1-13.7-27.2c-2.7-5.3-6.5-7.1-10.3-5
	c-4.2,2.4-5.2,6.4-2.7,11.3c13.1,25.4,26.1,50.9,39.2,76.3c11.2,21.7,22.5,43.4,33.5,65.3c1.8,3.7,3.9,4.6,7.3,3.7
	C401.9,306.7,403.2,303.8,403.7,300.3z M277.7,434.6c0-2.2-0.3-4.3-1.3-6.3c-10.2-20-20.4-40-30.6-60c-1.4-2.7-2.7-2.5-4.9-0.9
	c-5,3.5-10.1,7-15.4,10.1c-3.4,1.9-3.9,3.7-2.1,7.1c9.8,18.7,19.4,37.5,29,56.3c3.4,6.6,8.4,9.4,15,8
	C273,447.7,277.6,441.3,277.7,434.6z M381.9,204.4c-3.7,0.3-6.5,0.6-9.2,0.9c-2.3,0.2-2.9,1.1-1.9,3.2c4.1,8.1,8.2,16.3,12.3,24.4
	c1.4,2.7,2.6,2.4,4.2,0.2c4.6-6.4,8.1-12.8,1.9-20.2c-1.1-1.4-1.8-3.2-2.5-4.8C385.6,205.4,384,203.9,381.9,204.4z M272.4,363.8
	c-0.7-1.3-1.2-2.6-1.9-3.7c-6.3-10.5-2.3-10.1-13.6-3c-1.2,0.8-3.4,1.6-2.1,3.8c2.2,3.6,2.7,8.2,6.6,10.7c0.2,0.1,0.7-0.1,0.9-0.3
	c2.6-2.3,6.2-2.9,8.6-5.5C271.5,365.1,271.9,364.4,272.4,363.8z"/>
<path class="st1" d="M223.7,412c1.9,3.8,4.4,7.4,5.5,11.6c-21.6-1-42.4-6.2-62-15.1c-59-26.8-96.6-71.9-111.6-135
	c-19.7-82.8,22.3-172.9,97.9-211.9c32.1-16.6,66.1-24.6,102-21.9c60.9,4.6,109.4,32.1,145.5,81.5c-4.2,2.9-4,7.8-5.3,12
	c-45.5-64.4-107.4-91.9-185.3-79.5c-44.3,7.1-80.7,30-108.6,65.3c-34.2,43.2-46.6,92.6-36.5,146.6c9.5,50.6,36.7,90.2,79.9,118.6
	C169.1,399.7,195.2,409.1,223.7,412z"/>
<path class="st1" d="M286.2,419.2c-2.7-2.8-4-6.4-5.3-9.9c42.2-9.3,77-30.7,104.1-64.3c6.1-7.6,12.3-15.2,16-24.4
	c10.2-3.1,16.5-13.7,14.5-24.3c-0.3-1.4-0.4-2.9-0.5-4.3c9.3-28.5,12.7-57.6,8-87.3c-3-18.4-7.9-36.2-16.9-52.7
	c0.4-5.6,1.9-11,4-16.2c7.6,11.6,12.4,24.4,17,37.4c-5.2,7.2-3.6,13.1,3.9,14.3c2.2,9.8,3.7,19.7,4.7,29.6c-4.4-0.8-7.5,1.2-9.2,4.9
	c-1.4,3-0.1,6.1,2.2,8.1c2,1.8,4.9,2.5,7.4,3.7c-2.6,73.1-35.6,128.2-98.1,165.6C321.9,409,304.6,415.7,286.2,419.2z"/>
<path class="st2" d="M430.9,187.4c-7.6-1.2-9.2-7.1-3.9-14.3c11.3-6.9,22.6-13.7,33.7-20.8c3.8-2.4,7.1-2.9,10.1,0.7
	c2.5,3,1.3,9.6-2.2,12c-3.5,2.5-7.3,4.6-10.9,7c-7.5,4.8-15.1,9.5-22.5,14.3C433.9,187.2,432.4,187.2,430.9,187.4z"/>
<path class="st2" d="M436,233.8c-2.5-1.2-5.4-2-7.4-3.7c-2.3-2-3.6-5.1-2.2-8.1c1.8-3.7,4.8-5.8,9.2-4.9c7.7,2.4,15.5,4.9,23.2,7.2
	c4.5,1.4,5.7,4.8,5.2,8.9c-0.6,5.2-5.1,7.7-11,5.6C447.5,236.7,441.8,235.3,436,233.8z"/>
<path class="st3" d="M410,135.7c-2.1,5.2-3.6,10.6-4,16.2c-1.7,3.2-1.3,7.2-4.1,9.9c-7.5,2.7-11.2-0.3-10.3-8.4
	c0.4-3.4,0.5-6.8,0.7-10.2c2.7-2.9,1.9-6.9,3.4-10.2c1.3-4.2,1.1-9.1,5.3-12c7.4-1.2,10.9,2.3,9.7,9.8
	C410.4,132.5,410.2,134.1,410,135.7z"/>
<path class="st4" d="M379.9,191.2c-5.5,0.3-11.8,2.4-16.2,0.4c-4.4-2.1-5.5-9-8-13.8c-5-9.6-9.9-19.2-14.8-28.8
	c-8-15.4-23.2-16.4-33.1-2.2c-9.3,13.4-18.6,26.7-28,40.1c-1.1,1.6-2.5,3.1-3.8,4.6c-14.7-1-11.3-1-11.7,10.1
	c-0.1,1.9,0.4,3.9,0.6,5.8c-2.5,4.7-5.6,9.1-9.1,13.1c0-6.5-0.1-12.9-0.1-19.4c0-10.6,0-10.5-10.8-10.1c-2.6,0.1-3.4,1-3.4,3.5
	c0.1,8.1-0.1,16.3,0.1,24.4c0.1,6.9-0.7,13.9,0.5,20.8c-2.1,4.7-5.5,8.6-8.4,12.7c-1.6-1.5-0.9-3.4-0.9-5.2c-0.1-15.8,0-31.6,0-47.4
	c0-8.8,0-8.6-8.6-8.9c-4.3-0.2-5.7,0.9-5.7,5.4c0.3,20.4,0.1,40.9,0.2,61.3c0,3.3-0.7,6.6,0.6,9.8c-6.4,5.5-13.9,9.5-20.9,14.2
	c-7.2,4.8-14.3,9.7-21.7,14.1c-16.9,10-25,25-26.1,44.3c-27.6-23.1-43.9-52.8-48.7-88.2c-6.2-46.3,7.2-86.9,40-120.4
	c24.8-25.4,55.4-38.9,90.6-42.2c4.2-0.4,5.4,0.8,5.2,5c-0.4,7.6-0.3,15.3,0,23c0.1,3.9-0.9,5-4.9,5c-11.6,0.1-23.3-1.2-34.9,0.8
	c-48.6,8.3-72.4,62.2-45.4,103.2c12.1,18.3,29.4,28.4,51.5,29.9c1.4,0.1,3.7,1.2,3.8-1.7c0.1-2.8,0.6-5.9-0.3-8.4
	c-0.8-2.1-3.9-0.6-5.9-1c-2.4-0.6-4.8-1.1-7.2-1.7c-27.6-7.5-45.3-33.9-41.4-61.8c3.8-27.6,28-48.4,56.1-48.5c12,0,24-0.1,36,0.1
	c3,0,4-0.7,3.9-3.8c-0.2-16-0.1-32,0-48c0-2.7-0.8-3.5-3.4-3.4c-6.2,0.2-12.3,0.2-18.5,0.9c-38.5,4.2-71.2,20.5-97,49
	C79.8,183.3,75.8,262,119.5,322.9c9,12.5,19.5,23.6,32.4,32.2c2.1,4.2,4.1,8.3,5.2,12.9c-2.4,0.3-3.9-1.6-5.5-2.8
	c-37.1-26.4-60.2-61.7-67.9-106.8c-6.4-38-0.6-74.2,19.3-107.1c33.8-55.9,84-83.2,149.6-81.4c3.4,0.1,4.5,1,4.5,4.6
	c-0.2,20.8-0.2,41.7,0,62.5c0,3.7-1.2,4.3-4.5,4.3c-14.5-0.2-29-0.2-43.5,0c-12.6,0.1-23.9,4.3-33,13.1
	c-14,13.6-18.7,30.2-13.1,48.8c5.8,19.3,19.8,30.1,39.3,33.8c3.4,0.7,5.8,0.6,6-4.7c0.2-6.1-3-6.3-7.2-7.1
	c-20.8-3.9-34-26.1-27.7-46.3c5.2-16.5,19.1-26.5,37.4-26.6c17.5-0.1,35-0.1,52.5,0.1c3.8,0,5.1-0.8,5-4.9
	c-0.2-21.8-0.1-43.7-0.1-65.5c0-11,0-11.1,10.9-8.4c52.6,13.1,90.3,44.2,112.8,93.5c6.6,14.5,11.4,29.7,11.9,46
	c-3.6-2.7-4.4-7.1-6.5-10.8c-2.1-3.6-3.8-7.4-5.7-11.1c0-0.3,0.2-0.7,0.1-1C374.4,135,338.2,99,282.3,83c-5.8-1.7-5.9-1.5-5.9,4.4
	c0,22.5-0.2,45,0.1,67.5c0.1,4.8-1.5,5.7-5.9,5.6c-19-0.2-38-0.1-57-0.1c-2.8,0-5.6,0.3-8.4,0.6c-14.2,1.8-24.6,13.2-25.2,27.2
	c-0.5,14,9.1,25.7,23,29.2c4.8,1.2,5.6-0.3,4.9-4.3c-0.4-2.4,1.8-5.7-2.7-6.9c-9.3-2.4-15.5-10.6-14.2-18.3
	c1.9-11.1,10.2-16.2,19-16.1c24.3,0.4,48.6,0.1,73,0.2c3.7,0,4.8-1,4.7-4.7c-0.2-21.8-0.1-43.6,0-65.5c0-1.8-0.4-3.6,0.5-5.6
	c0.6,0.2,1.2,0.3,1.8,0.5c33,11.6,58.4,32.5,76.4,62.4C372.4,169.3,377.6,179.7,379.9,191.2z"/>
<path class="st2" d="M273.4,335.6c-2.6,0.2-4-1.3-5.1-3.4c-10.1-19.8-20.3-39.7-30.5-59.4c-1.2-2.3-0.8-3.8,0.6-5.8
	c15.4-21.8,30.7-43.7,45.9-65.6c6.7-9.7,13.4-19.4,20.1-29.1c3.2-4.7,4-4.8,6.5,0.2c13.8,26.7,27.4,53.5,41.1,80.3
	c8.7,16.9,17.4,33.7,26.1,50.5c0.7,1.3,1.3,2.7,2.1,4c1.9,3.3,0.8,4.7-2.7,5.5c-13,2.8-25.9,5.8-38.9,8.7
	c-20.6,4.5-41.2,9-61.8,13.5C275.6,335.1,274.5,335.3,273.4,335.6z"/>
<path class="st1" d="M403.9,213.1c-0.4-16.2-5.2-31.4-11.9-46c-22.5-49.3-60.2-80.4-112.8-93.5c-10.9-2.7-10.9-2.7-10.9,8.4
	c0,21.8-0.1,43.7,0.1,65.5c0,4.1-1.2,4.9-5,4.9c-17.5-0.2-35-0.2-52.5-0.1c-18.3,0.1-32.2,10.1-37.4,26.6
	c-6.3,20.2,6.8,42.4,27.7,46.3c4.1,0.8,7.4,1.1,7.2,7.1c-0.2,5.3-2.6,5.3-6,4.7c-19.6-3.7-33.5-14.5-39.3-33.8
	c-5.6-18.6-0.9-35.2,13.1-48.8c9.1-8.8,20.4-13,33-13.1c14.5-0.1,29-0.1,43.5,0c3.4,0,4.6-0.6,4.5-4.3c-0.2-20.8-0.2-41.7,0-62.5
	c0-3.5-1-4.5-4.5-4.6C187,68,136.9,95.3,103.1,151.3c-19.9,32.9-25.8,69.1-19.3,107.1c7.6,45,30.8,80.4,67.9,106.8
	c1.7,1.2,3.1,3.1,5.5,2.8H157c-0.1,1.1,0.9,1,1.5,1.2c11.5,17.3,27.3,24.4,47.9,19.9c1.7,1.9,4.4,0.9,6.3,2c2.6,3.8,4.8,7.7,6.3,12
	c-26.8-3.5-51.2-13.4-73.5-28.7c-62.1-42.6-89.6-120.2-67.9-192.5C103,97.3,188.6,44.7,275.4,61.4c50.8,9.8,89.8,37.5,116.9,81.7
	c-0.2,3.4-0.4,6.8-0.7,10.2c-0.9,8.1,2.7,11,10.3,8.4c0.6,1.4,1.3,2.7,1.9,4.1c6.9,17,11.1,34.6,12.5,53c1.7,20.9-0.5,41.4-6.7,61.4
	c-4.4-3.8-5.4-9.7-8.6-14.2c1.6-0.8,1.6-2.4,1.9-3.7c1.8-9.4,2.5-19,2.9-28.5c0.1-2.2,1-4.6-0.8-6.6c1.7-3.5,2.8-6.9-0.4-10.4
	C404,216.3,402.6,214.6,403.9,213.1z"/>
<path class="st1" d="M151.9,355.1c-12.9-8.6-23.4-19.7-32.4-32.2C75.8,262,79.8,183.3,130.1,127.8c25.9-28.5,58.5-44.8,97-49
	c6.2-0.7,12.3-0.7,18.5-0.9c2.6-0.1,3.4,0.7,3.4,3.4c-0.1,16-0.2,32,0,48c0,3.1-0.9,3.9-3.9,3.8c-12-0.2-24-0.1-36-0.1
	c-28.1,0-52.2,20.9-56.1,48.5c-3.9,27.9,13.8,54.4,41.4,61.8c2.4,0.6,4.8,1.1,7.2,1.7c2,0.5,5.1-1.1,5.9,1c1,2.5,0.4,5.6,0.3,8.4
	c-0.1,2.9-2.4,1.7-3.8,1.7c-22-1.6-39.4-11.6-51.5-29.9c-27-41-3.1-95,45.4-103.2c11.6-2,23.3-0.7,34.9-0.8c4,0,5.1-1.1,4.9-5
	c-0.3-7.7-0.3-15.3,0-23c0.2-4.2-1-5.4-5.2-5c-35.3,3.2-65.9,16.8-90.6,42.2c-32.8,33.5-46.2,74.1-40,120.4
	c4.7,35.4,21.1,65,48.7,88.2C151.2,345.1,151.6,350.1,151.9,355.1z"/>
<path class="st4" d="M392.3,143.3c-27.1-44.2-66.1-72-116.9-81.7C188.6,44.9,103,97.5,77.6,182.1c-21.7,72.2,5.8,149.8,67.9,192.5
	c22.3,15.3,46.6,25.1,73.5,28.7c2.3,2.5,3,6,4.8,8.8c-28.4-2.9-54.6-12.3-78.5-27.9c-43.2-28.3-70.4-68-79.9-118.6
	c-10.2-54,2.3-103.4,36.5-146.6c27.9-35.3,64.3-58.2,108.6-65.3c77.9-12.4,139.8,15.1,185.3,79.5C394.2,136.4,395,140.4,392.3,143.3
	z"/>
<path class="st3" d="M162.8,343.4c0.2-16,5.7-26.7,17.2-34.1c14.8-9.5,29.5-19.1,44.2-28.8c3-2,4.4-1.8,6,1.5
	c9.4,18.5,18.9,36.9,28.5,55.3c1.3,2.5,0.4,3.8-1.4,5c-16.3,10.5-32.3,21.6-49,31.4c-15.8,9.2-35.4,0.7-42.6-17.4
	C163.8,351.3,162.5,346.3,162.8,343.4z M196.5,361.5c7-0.9,13.4-5.9,19.4-11.3c2.5-2.3,2-6-0.5-8.6c-2.4-2.4-5.1-1.7-7.6,0.1
	c-2.7,1.9-5.4,3.8-8.3,5.4c-5,2.9-7.1,2.6-10.6-1.9c-2.1-2.6-4.3-4.4-7.5-2.3c-3.1,2-3.4,5-2.1,8.3
	C181.6,357.2,188.2,361.6,196.5,361.5z M239.5,332.2c-0.5-2.8-1.7-5.8-5.5-6.1c-3.6-0.3-5.4,2-5.7,5.5c-0.3,3.6,1.1,6.5,4.8,6.9
	C236.8,338.9,238.7,336.2,239.5,332.2z"/>
<path class="st1" d="M379.9,191.2c-2.3-11.6-7.5-22-13.5-31.9c-18-29.9-43.4-50.8-76.4-62.4c-0.6-0.2-1.2-0.3-1.8-0.5
	c-0.9,1.9-0.5,3.8-0.5,5.6c0,21.8-0.1,43.6,0,65.5c0,3.8-1,4.7-4.7,4.7c-24.3-0.2-48.6,0.2-73-0.2c-8.7-0.1-17.1,5-19,16.1
	c-1.3,7.7,5,15.9,14.2,18.3c4.5,1.2,2.3,4.5,2.7,6.9c0.7,4-0.1,5.4-4.9,4.3c-13.9-3.4-23.5-15.2-23-29.2s11-25.3,25.2-27.2
	c2.8-0.4,5.6-0.6,8.4-0.6c19-0.1,38-0.2,57,0.1c4.4,0,5.9-0.8,5.9-5.6c-0.3-22.5-0.1-45-0.1-67.5c0-5.9,0-6.1,5.9-4.4
	c55.9,16,92.1,52,109.5,107.3c0.1,0.3-0.1,0.6-0.1,1C387.8,191.3,383.9,191.2,379.9,191.2z"/>
<path class="st3" d="M403.7,300.3c-0.5,3.5-1.8,6.4-5.6,7.3c-3.5,0.9-5.5,0-7.3-3.7c-10.9-21.9-22.3-43.5-33.5-65.3
	c-13.1-25.4-26.2-50.9-39.2-76.3c-2.5-4.9-1.5-9,2.7-11.3c3.8-2.1,7.6-0.4,10.3,5c4.6,9,9.1,18.1,13.7,27.2
	c18.9,36.9,37.8,73.7,56.7,110.6C402.5,295.8,404,297.7,403.7,300.3z"/>
<path class="st3" d="M277.7,434.6c-0.1,6.7-4.7,13.1-10.3,14.3c-6.5,1.4-11.6-1.4-15-8c-9.6-18.8-19.2-37.6-29-56.3
	c-1.8-3.4-1.3-5.2,2.1-7.1c5.3-3,10.4-6.5,15.4-10.1c2.2-1.6,3.5-1.8,4.9,0.9c10.1,20,20.4,40,30.6,60
	C277.4,430.3,277.7,432.4,277.7,434.6z"/>
<path class="st1" d="M276.9,402.2c-1.7-3.5-3.4-7.1-5.1-10.6c31.9-5.9,59.7-19.9,83.2-42.2c7.1-6.7,14.2-13.5,18.9-22.3l-0.1,0.1
	c0.6,0,0.9-0.3,1-0.9c5.1-1,10.2-2,15.3-2.9c-0.6,1.2-1.1,2.4-1.8,3.5C371,353,348.4,373,320.5,387.1
	C306.6,394.1,291.9,398.5,276.9,402.2z"/>
<path class="st4" d="M276.9,402.2c15-3.7,29.7-8.1,43.5-15.1c27.9-14.1,50.5-34.1,67.8-60.2c0.7-1.1,1.2-2.3,1.8-3.5
	c3.4-1.7,7.2-1.9,10.8-2.7c-3.7,9.2-9.8,16.9-16,24.4c-27.1,33.6-61.9,55-104.1,64.3C279,407.2,278,404.7,276.9,402.2z"/>
<path class="st4" d="M409.6,280.3c6.2-20,8.3-40.5,6.7-61.4c-1.5-18.3-5.6-36-12.5-53c-0.6-1.4-1.3-2.7-1.9-4.1
	c2.8-2.7,2.4-6.7,4.1-9.9c9,16.5,13.9,34.3,16.9,52.7c4.8,29.8,1.3,58.8-8,87.3C412.4,288.4,409.8,284.9,409.6,280.3z"/>
<path class="st3" d="M219.5,267.5c-1.3-3.2-0.6-6.5-0.6-9.8c-0.1-20.4,0.1-40.9-0.2-61.3c-0.1-4.5,1.4-5.6,5.7-5.4
	c8.5,0.3,8.6,0.1,8.6,8.9c0,15.8,0,31.6,0,47.4c0,1.7-0.7,3.7,0.9,5.2C229.8,258.1,227.2,265.3,219.5,267.5z"/>
<path class="st4" d="M373.9,327c-4.7,8.8-11.8,15.6-18.9,22.3c-23.5,22.3-51.3,36.3-83.2,42.2c-1-1.6-1.9-3.4-3-4.9
	c-1.8-2.6-0.4-3.4,2-3.7c14.2-1.5,27.3-6.5,40-12.7c20.1-9.8,37.5-23.2,51.4-40.8C365.9,327.8,369.8,327,373.9,327z"/>
<path class="st1" d="M362.2,329.5c-13.9,17.7-31.3,31-51.4,40.8c-12.7,6.2-25.8,11.2-40,12.7c2.4-4.5,7.3-5.6,10.9-8.5
	c2.2-1.8,4.7-3.2,4.4-6.5c21.2-6,39.3-17.3,55.3-32.3c0.3-0.3,0.3-0.9,0.4-1.4C348.3,331.5,355.3,330.6,362.2,329.5z"/>
<path class="st4" d="M341.8,334.3c-0.1,0.5-0.1,1.1-0.4,1.4c-16,14.9-34.1,26.2-55.3,32.3c0.1-7.8-5.9-13.1-8-20.4
	c15.7-3.5,31.4-7,47.1-10.3C330.7,336.1,336,333.8,341.8,334.3z"/>
<path class="st2" d="M242.3,239.8c-1.2-6.9-0.4-13.9-0.5-20.8c-0.2-8.1,0-16.3-0.1-24.4c0-2.5,0.8-3.4,3.4-3.5
	c10.8-0.5,10.7-0.6,10.8,10.1c0,6.5,0.1,12.9,0.1,19.4C251.8,227.2,247.6,233.8,242.3,239.8z"/>
<path class="st3" d="M381.9,204.4c2.2-0.6,3.8,1,4.8,3.6c0.7,1.7,1.3,3.5,2.5,4.8c6.3,7.4,2.8,13.8-1.9,20.2
	c-1.6,2.2-2.9,2.6-4.2-0.2c-4.1-8.1-8.2-16.3-12.3-24.4c-1.1-2.1-0.4-3.1,1.9-3.2C375.4,205.1,378.2,204.8,381.9,204.4z"/>
<path class="st4" d="M404.9,227.2c1.8,2,0.9,4.5,0.8,6.6c-0.4,9.6-1.1,19.1-2.9,28.5c-0.3,1.4-0.3,3-1.9,3.7
	c-3.8-6.6-6-13.2-4.5-21.2C397.7,238,402.2,233.2,404.9,227.2z"/>
<path class="st3" d="M272.4,363.8c-0.5,0.7-0.9,1.3-1.4,1.9c-2.3,2.6-6,3.2-8.6,5.5c-0.2,0.2-0.7,0.4-0.9,0.3
	c-3.9-2.5-4.4-7.2-6.6-10.7c-1.3-2.1,0.8-3,2.1-3.8c11.3-7.1,7.3-7.5,13.6,3C271.2,361.2,271.7,362.4,272.4,363.8z"/>
<path class="st3" d="M265,207.4c-0.2-1.9-0.7-3.9-0.6-5.8c0.4-11.2-3-11.2,11.7-10.1C273,197.2,269.3,202.4,265,207.4z"/>
<path class="st4" d="M212.7,391.1c-1.9-1.1-4.6-0.1-6.3-2C209.2,387.5,212,385.8,212.7,391.1z"/>
<path class="st4" d="M374.8,326.3c-0.1,0.6-0.4,0.9-1,0.9C373.5,326.1,374.3,326.4,374.8,326.3z"/>
<path class="st4" d="M158.5,369.2c-0.7-0.2-1.6,0-1.5-1.2C158.2,367.5,158.1,368.6,158.5,369.2z"/>
<path class="st0" d="M196.5,361.5c-8.3,0-14.9-4.3-17.3-10.3c-1.3-3.3-1.1-6.3,2.1-8.3c3.2-2.1,5.4-0.3,7.5,2.3
	c3.5,4.5,5.6,4.8,10.6,1.9c2.8-1.7,5.6-3.5,8.3-5.4c2.6-1.8,5.3-2.5,7.6-0.1c2.5,2.6,3,6.3,0.5,8.6
	C210,355.6,203.5,360.6,196.5,361.5z"/>
<path class="st0" d="M239.5,332.2c-0.8,4-2.6,6.7-6.4,6.2c-3.7-0.4-5.1-3.3-4.8-6.9c0.3-3.5,2.1-5.8,5.7-5.5
	C237.7,326.4,239,329.4,239.5,332.2z"/>
</svg>
