<?xml version="1.0" encoding="utf-8"?>
<!-- Generator: Adobe Illustrator 23.0.2, SVG Export Plug-In . SVG Version: 6.00 Build 0)  -->
<svg version="1.1" id="Capa_1" xmlns="http://www.w3.org/2000/svg" xmlns:xlink="http://www.w3.org/1999/xlink" x="0px" y="0px"
	 viewBox="0 0 535.5 535.5" style="enable-background:new 0 0 535.5 535.5;" xml:space="preserve">
<style type="text/css">
	.st0{fill:#1D1D1B;}
	.st1{fill:#284899;}
</style>
<rect x="162.6" y="95.6" class="st0" width="210.4" height="344.3"/>
<path class="st1" d="M382.5,449.4v5.5l153,69.8v-514l-153,80.8V449.4z M449.4,88.7l57.4-24.9v127.7l-57.4,11V88.7z M449.4,213.9
	l57.4-9.7v127.7l-57.4-4.2V213.9z M449.4,339.1l57.4,5.6v127.7L449.4,453V339.1z M401.6,113.7l38.3-19v110.3l-38.3,8.6V113.7z
	 M401.6,223.6l38.3-7.5v110.3l-38.3-2.9V223.6z M401.6,333.6l38.3,3.9v110.3l-38.3-14.3V333.6z"/>
<path class="st1" d="M0,524.7L153,455v-5.5V95.6v-4L0,10.8V524.7z M95.6,94.7l38.3,19v99.9l-38.3-8.6V94.7z M95.6,216.1l38.3,7.5
	v99.9l-38.3,2.9V216.1z M95.6,337.5l38.3-3.9v99.9l-38.3,14.3V337.5z M28.7,63.8l57.4,24.9v113.9l-57.4-11V63.8z M28.7,204.2
	l57.4,9.7v113.9l-57.4,4.2C28.7,331.9,28.7,204.2,28.7,204.2z M28.7,344.7l57.4-5.6V453l-57.4,19.4
	C28.7,472.4,28.7,344.7,28.7,344.7z"/>
</svg>
