<?xml version="1.0" encoding="utf-8"?>
<!-- Generator: Adobe Illustrator 19.0.0, SVG Export Plug-In . SVG Version: 6.00 Build 0)  -->
<svg version="1.1" id="Objects" xmlns="http://www.w3.org/2000/svg" xmlns:xlink="http://www.w3.org/1999/xlink" x="0px" y="0px"
	 viewBox="0 0 500 500" style="enable-background:new 0 0 500 500;" xml:space="preserve">
<style type="text/css">
	.st0{fill:#68C8BF;}
	.st1{fill:#ED534F;}
	.st2{fill:#CED7DB;}
	.st3{fill:#788F9B;}
	.st4{fill:#FEC928;}
	.st5{fill:#FEB200;}
	.st6{fill:#FF98AA;}
	.st7{fill:#EE293D;}
	.st8{fill:#FFDA1A;}
	.st9{fill:#C4C524;}
	.st10{fill:#D2E09F;}
	.st11{fill:#FE293D;}
	.st12{fill:#CCCCCC;}
	.st13{fill:none;stroke:#C4C524;stroke-miterlimit:10;}
	.st14{fill:none;stroke:#C4C524;stroke-width:2;stroke-linecap:round;stroke-miterlimit:10;}
	.st15{fill:none;stroke:#8FA3AD;stroke-linecap:round;stroke-miterlimit:10;}
	.st16{fill:none;stroke:#CED7DB;stroke-linecap:round;stroke-miterlimit:10;}
	.st17{fill:none;stroke:#FE5722;stroke-linecap:round;stroke-miterlimit:10;}
	.st18{fill:none;stroke:#8FA3AD;stroke-width:2;stroke-linecap:round;stroke-miterlimit:10;}
	.st19{fill:none;stroke:#E5ED9A;stroke-width:2;stroke-linecap:round;stroke-miterlimit:10;}
	.st20{fill:none;stroke:#E44747;stroke-width:2;stroke-linecap:round;stroke-miterlimit:10;}
	.st21{fill:none;stroke:#FEC928;stroke-width:2;stroke-linecap:round;stroke-miterlimit:10;}
	.st22{fill:#EBEEF0;}
	.st23{fill:#B1EAF1;}
	.st24{fill:#AFBDC4;}
	.st25{fill:#FECB80;}
	.st26{fill:#FE9700;}
	.st27{fill:#E55100;}
</style>
<g>
	<polygon class="st0" points="311.2,112.5 321.2,106.3 322.3,101.4 315.1,105.8 	"/>
	<polygon class="st1" points="314.4,117.4 310.6,120.2 311.2,112.5 315.1,105.8 	"/>
	<polygon class="st0" points="133.7,109.5 132.5,98.1 128.8,95.1 129.5,103.3 	"/>
	<polygon class="st1" points="139.2,108.8 140,113.2 133.7,109.5 129.5,103.3 	"/>
	<polygon class="st2" points="241.6,72.8 240,79.9 248.7,88.7 250.3,82 	"/>
	<polygon class="st2" points="241.7,87 240,94.1 246,100.2 247.6,93.4 	"/>
	<polygon class="st3" points="248.7,88.7 240,94.1 241.7,87 250.3,82 	"/>
	<polygon class="st4" points="220.5,137 221.7,143.6 232.4,148 231.3,141.6 	"/>
	<polygon class="st4" points="225.8,149.1 227,155.7 234.3,158.7 233.2,152.4 	"/>
	<polygon class="st5" points="232.4,148 227,155.7 225.8,149.1 231.3,141.6 	"/>
	<polygon class="st5" points="234.3,158.7 229.6,166 228.5,160.1 233.2,152.4 	"/>
	<polygon class="st6" points="191.4,97.3 192.8,100.6 197.2,101.7 195.9,98.6 	"/>
	<polygon class="st7" points="199.5,107.1 197.8,111.5 196.6,108.5 198.1,104 	"/>
	<polygon class="st6" points="193.9,103.1 195.3,106.4 199.5,107.1 198.1,104 	"/>
	<polygon class="st7" points="197.2,101.7 195.3,106.4 193.9,103.1 195.9,98.6 	"/>
	<polygon class="st6" points="321.6,145.1 317.4,150.5 308.7,150.5 312.7,145.3 	"/>
	<polygon class="st7" points="301.8,159.2 302.7,168 306.5,163.2 305.9,154.1 	"/>
	<polygon class="st6" points="314.1,154.6 309.9,160 301.8,159.2 305.9,154.1 	"/>
	<polygon class="st7" points="308.7,150.5 309.9,160 314.1,154.6 312.7,145.3 	"/>
	<path class="st7" d="M156.8,166.3l10.4-2.3l5.6,8.6l-4.1,1.8c-2.5-0.6-4.2-1-6.7-1.6L156.8,166.3z"/>
	<polygon class="st8" points="162,172.8 166.5,171.1 168.7,174.4 	"/>
	<polygon class="st9" points="271.7,167.1 278.9,168 284.6,163.2 279.7,162.8 274.8,164.9 	"/>
	<polygon class="st10" points="274.8,164.9 276.1,161.5 279.7,162.8 	"/>
	<polygon class="st8" points="401.2,104.3 408.3,102.4 411.7,95.8 407.1,97.3 403.3,101.1 	"/>
	<polygon class="st9" points="403.3,101.1 403.2,97.4 407.1,97.3 	"/>
	<polygon class="st9" points="338.2,181.8 345.4,181.1 349.9,175 345.1,175.8 340.7,179 	"/>
	<polygon class="st10" points="340.7,179 341.2,175.4 345.1,175.8 	"/>
	<circle class="st7" cx="302.4" cy="76" r="2.4"/>
	
		<rect x="417.5" y="167.9" transform="matrix(0.9526 0.3043 -0.3043 0.9526 71.9238 -119.8962)" class="st11" width="6.2" height="5.9"/>
	
		<rect x="428" y="140" transform="matrix(0.9526 0.3043 -0.3043 0.9526 63.6259 -124.1803)" class="st12" width="4.4" height="4.1"/>
	<rect x="379.1" y="185.4" class="st0" width="2.7" height="2.7"/>
	<circle class="st0" cx="264.7" cy="119.1" r="1.9"/>
	<circle class="st9" cx="213.2" cy="60.8" r="2.7"/>
	<circle class="st8" cx="199.6" cy="83.6" r="2.1"/>
	<circle class="st8" cx="183.4" cy="141.2" r="1.8"/>
	<circle class="st9" cx="149.3" cy="123.3" r="1.5"/>
	<circle class="st13" cx="81.5" cy="177" r="2.4"/>
	<circle class="st7" cx="124.3" cy="167.2" r="1.4"/>
	<rect x="174.3" y="196" class="st7" width="3.6" height="2.8"/>
	<path class="st14" d="M333.2,129.1c2,1.3,5.8-1.9,4.1-4.8c-1.7-2.9,0.8-5.3,3.7-4.2c2.9,1.2,5.4-1.7,3.5-4.6"/>
	<path class="st15" d="M154.9,82c2.2,0.2,3,2.3,2.2,4c-0.8,1.6,0.4,3.2,2.3,3.6c1.9,0.4,2.8,2,2.1,3.6"/>
	<path class="st16" d="M361.2,168.7c-0.4-3.1,2.8-4.2,5-2.9c2.2,1.4,4.5-0.1,4.2-2.8c-0.4-2.8,2.9-3.9,5-2.8
		c2.8,1.4,5.7,0.3,5.4-3.1"/>
	
		<rect x="113.9" y="143.8" transform="matrix(0.9863 -0.1648 0.1648 0.9863 -22.4196 21.0783)" class="st16" width="3.8" height="3.8"/>
	
		<rect x="134.7" y="184.3" transform="matrix(0.9259 -0.3779 0.3779 0.9259 -60.3167 65.5338)" class="st16" width="4.4" height="4.4"/>
	<path class="st17" d="M76.4,151.6c2.9-2.3,6.5-0.1,6.8,2.6c0.3,2.7,3.4,3.6,5.7,2.1c2.3-1.5,5.8,0.3,6.1,2.8c0.3,2.5,3.3,2.9,4.6,2
		"/>
	
		<rect x="281.2" y="81.7" transform="matrix(0.4828 0.8757 -0.8757 0.4828 219.633 -204.6632)" class="st16" width="3.8" height="3.8"/>
	
		<rect x="249.4" y="114.8" transform="matrix(0.6637 0.748 -0.748 0.6637 172.1011 -148.8119)" class="st16" width="4.4" height="4.4"/>
	<path class="st18" d="M271.7,48.2c3.4,2.6,2.1,7.2-0.8,8.4c-2.9,1.2-3,4.9-0.6,7c2.4,2,1.5,6.5-1.2,7.7c-2.7,1.2-2.2,4.5-0.9,5.7"
		/>
	
		<rect x="368.6" y="141.3" transform="matrix(-0.1827 0.9832 -0.9832 -0.1827 579.0282 -194.8917)" class="st16" width="3.8" height="3.8"/>
	
		<rect x="302.5" y="191.7" transform="matrix(-0.119 0.9929 -0.9929 -0.119 533.4056 -85.5743)" class="st16" width="4.4" height="4.4"/>
	<polygon class="st0" points="188.5,358.1 181.2,362.6 180.4,366.1 185.7,363 	"/>
	<polygon class="st1" points="186.2,354.5 188.9,352.5 188.5,358.1 185.7,363 	"/>
	<polygon class="st0" points="367.2,361.7 368.1,370.3 370.9,372.5 370.4,366.4 	"/>
	<polygon class="st1" points="363,362.2 362.4,358.9 367.2,361.7 370.4,366.4 	"/>
	<polygon class="st2" points="258.8,394.2 260.1,388.7 253.3,381.8 252,387 	"/>
	<polygon class="st2" points="258.7,383.1 260,377.6 255.4,372.8 254.2,378.1 	"/>
	<polygon class="st3" points="253.3,381.8 260,377.6 258.7,383.1 252,387 	"/>
	<polygon class="st4" points="279,330.4 278,325 269.3,321.5 270.2,326.6 	"/>
	<polygon class="st4" points="274.7,320.6 273.7,315.2 267.8,312.7 268.7,317.9 	"/>
	<polygon class="st5" points="269.3,321.5 273.7,315.2 274.7,320.6 270.2,326.6 	"/>
	<polygon class="st5" points="267.8,312.7 271.6,306.8 272.5,311.7 268.7,317.9 	"/>
	<g>
		<polygon class="st6" points="313.6,378.1 311.4,372.9 304.5,371 306.5,376 		"/>
		<polygon class="st7" points="300.9,362.6 303.5,355.8 305.5,360.4 303,367.6 		"/>
		<polygon class="st6" points="309.6,368.9 307.5,363.7 300.9,362.6 303,367.6 		"/>
		<polygon class="st7" points="304.5,371 307.5,363.7 309.6,368.9 306.5,376 		"/>
	</g>
	<g>
		<polygon class="st6" points="178.3,324.8 182.3,319.7 190.7,319.7 186.8,324.7 		"/>
		<polygon class="st7" points="197.2,311.3 196.4,302.9 192.8,307.5 193.4,316.3 		"/>
		<polygon class="st6" points="185.5,315.8 189.5,310.6 197.2,311.3 193.4,316.3 		"/>
		<polygon class="st7" points="190.7,319.7 189.5,310.6 185.5,315.8 186.8,324.7 		"/>
	</g>
	<g>
		<path class="st7" d="M346.2,304.3l-13,2.8l-7-10.8l5.1-2.2c3.1,0.8,5.2,1.3,8.3,2L346.2,304.3z"/>
		<polygon class="st8" points="339.6,296.1 334,298.2 331.3,294.1 		"/>
	</g>
	<polygon class="st9" points="229.2,302.9 222,302 216.3,306.8 221.2,307.2 226.1,305.1 	"/>
	<polygon class="st10" points="226.1,305.1 224.8,308.5 221.2,307.2 	"/>
	<polygon class="st8" points="110.7,347.2 100.1,350 94.8,360.2 101.9,357.8 107.6,352.1 	"/>
	<polygon class="st9" points="107.6,352.1 107.7,357.6 101.9,357.8 	"/>
	<polygon class="st9" points="162.7,288.2 155.4,288.9 151,295 155.8,294.2 160.1,291 	"/>
	<polygon class="st10" points="160.1,291 159.7,294.6 155.8,294.2 	"/>
	<circle class="st7" cx="198.5" cy="394" r="2.4"/>
	
		<rect x="77.1" y="296.3" transform="matrix(-0.9526 -0.3043 0.3043 -0.9526 65.6649 608.6127)" class="st11" width="6.2" height="5.9"/>
	<rect x="118.3" y="281" class="st0" width="4.4" height="4.4"/>
	<circle class="st0" cx="236.2" cy="350.9" r="1.9"/>
	<circle class="st9" cx="287.7" cy="409.2" r="2.7"/>
	<circle class="st8" cx="301.3" cy="386.4" r="2.1"/>
	<circle class="st8" cx="317.5" cy="328.8" r="1.8"/>
	<circle class="st9" cx="351.6" cy="346.7" r="1.5"/>
	<circle class="st13" cx="419.4" cy="293" r="2.4"/>
	<circle class="st7" cx="376.5" cy="302.8" r="1.4"/>
	<rect x="323.1" y="271.2" class="st7" width="3.6" height="2.8"/>
	<path class="st19" d="M167.7,340.9c-2-1.3-5.8,1.9-4.1,4.8c1.7,2.9-0.8,5.3-3.7,4.2c-2.9-1.2-5.4,1.7-3.5,4.6"/>
	<path class="st15" d="M346,388c-2.2-0.2-3-2.3-2.2-4c0.8-1.6-0.4-3.2-2.3-3.6c-1.9-0.4-2.8-2-2.1-3.6"/>
	<path class="st16" d="M139.7,301.3c0.4,3.1-2.8,4.2-5,2.9c-2.2-1.4-4.5,0.1-4.2,2.8c0.4,2.8-2.9,3.9-5,2.8
		c-2.8-1.4-5.7-0.3-5.4,3.1"/>
	
		<rect x="383.2" y="322.5" transform="matrix(-0.9863 0.1648 -0.1648 -0.9863 818.3371 580.808)" class="st16" width="3.8" height="3.8"/>
	
		<rect x="361.9" y="281.3" transform="matrix(-0.9259 0.3779 -0.3779 -0.9259 808.2356 408.4703)" class="st16" width="4.4" height="4.4"/>
	<path class="st20" d="M424.5,318.4c-2.9,2.3-6.5,0.1-6.8-2.6c-0.3-2.7-3.4-3.6-5.7-2.1c-2.3,1.5-5.8-0.3-6.1-2.8
		c-0.3-2.5-3.3-2.9-4.6-2"/>
	
		<rect x="215.9" y="384.5" transform="matrix(-0.4828 -0.8757 0.8757 -0.4828 -15.4047 763.6675)" class="st16" width="3.8" height="3.8"/>
	
		<rect x="251.1" y="341.8" transform="matrix(-0.6637 -0.748 0.748 -0.6637 164.7763 763.7249)" class="st16" width="6" height="6"/>
	<path class="st21" d="M235.7,421.6c-4-2.6-2.8-7.8,0.2-9.3c3.1-1.5,2.9-5.7,0.1-7.7c-2.8-2.1-2.1-7.1,0.8-8.6
		c2.9-1.5,2.1-5.2,0.5-6.4"/>
	
		<rect x="126.7" y="325" transform="matrix(0.1827 -0.9832 0.9832 0.1827 -216.5139 396.7419)" class="st16" width="7.2" height="7.2"/>
	<rect x="194" y="274" transform="matrix(0.119 -0.9929 0.9929 0.119 -101.3224 438.1045)" class="st16" width="4.4" height="4.4"/>
	<path class="st16" d="M122.4,365.8c-1.1-3.5,2.2-6.1,4.8-5.5c2.6,0.6,4.6-2,3.9-4.6c-0.6-2.6,2.2-5.4,4.7-4.8
		c2.5,0.5,3.8-2.1,3.5-3.6"/>
	<g>
		<path class="st22" d="M91.7,222.3v38.1H79.5v-38.1H65.2v-9.8h40.9v9.8H91.7z"/>
		<path class="st22" d="M146.3,237.1v23.2h-11.8v-20c0-4.3-2.5-7-6.5-7c-4.6,0-7.5,3.7-7.5,8.8v18.2h-11.8v-50.7h11.8v20
			c2.6-4.4,6.9-6.6,12.4-6.6C141,223,146.3,228.5,146.3,237.1z"/>
		<path class="st22" d="M187.3,236.3v24.1h-11.6v-4.2c-2.4,3.1-6.3,4.8-11.3,4.8c-7.9,0-12.6-4.8-12.6-11.6c0-7,5-11.1,14.2-11.1
			h9.7v-0.5c0-3.6-2.4-5.8-7.2-5.8c-3.1,0-7.1,1.1-11,3.1l-3.4-7.8c5.7-2.7,10.9-4.2,17.1-4.2C181.4,223,187.2,227.9,187.3,236.3z
			 M175.7,247.8v-3.3h-7.5c-3.6,0-5.3,1.2-5.3,4c0,2.7,1.9,4.4,5.2,4.4C171.8,252.9,174.9,250.9,175.7,247.8z"/>
		<path class="st22" d="M233.3,237.1v23.2h-11.8v-20c0-4.3-2.5-7-6.5-7c-4.3,0-7,3.1-7.5,7.5v19.5h-11.8v-36.9h11.8v6
			c2.6-4.3,6.8-6.5,12.3-6.6C228,223,233.3,228.5,233.3,237.1z"/>
		<path class="st22" d="M253.9,250.3v10.1h-11.8v-50.7h11.8v26.8l12.2-12.9h13.4l-13.5,14.2l13.9,22.7h-14l-8-14.2L253.9,250.3z"/>
	</g>
	<g>
		<path class="st22" d="M329.7,260.4h-12.1v-15.1l-17.7-32.8h12.2l11.6,20.9l11.3-20.9h12.2l-17.4,32.4V260.4z"/>
		<path class="st22" d="M384.4,241.9c0,11.3-8.1,18.9-20.1,18.9c-12.1,0-20.2-7.5-20.2-18.9c0-11.4,8.1-18.8,20.2-18.8
			C376.3,223.1,384.4,230.5,384.4,241.9z M356,242c0,5.7,3.4,9.6,8.3,9.6c4.9,0,8.2-3.8,8.2-9.6c0-5.7-3.4-9.6-8.2-9.6
			C359.4,232.5,356,236.4,356,242z"/>
		<path class="st22" d="M426.6,260.4h-11.8v-6.1c-2.5,4.4-6.6,6.6-12,6.6c-8,0-13.2-5.5-13.2-14.1v-23.2h11.8v19.9
			c0,4.4,2.4,7,6.2,7c4.5-0.1,7.2-3.8,7.2-8.8v-18.2h11.8V260.4z"/>
	</g>
	<path class="st23" d="M340.9,67.3h-1.6v-1.6c0-0.7-0.5-1.2-1.2-1.2c-0.7,0-1.2,0.5-1.2,1.2v1.6h-1.6c-0.7,0-1.2,0.5-1.2,1.2
		c0,0.7,0.5,1.2,1.2,1.2h1.6v1.6c0,0.7,0.5,1.2,1.2,1.2c0.7,0,1.2-0.5,1.2-1.2v-1.6h1.6c0.7,0,1.2-0.5,1.2-1.2
		C342.2,67.8,341.6,67.3,340.9,67.3z"/>
	<path class="st23" d="M162.3,388.1h-1.6v-1.6c0-0.7-0.5-1.2-1.2-1.2c-0.7,0-1.2,0.5-1.2,1.2v1.6h-1.6c-0.7,0-1.2,0.5-1.2,1.2
		c0,0.7,0.5,1.2,1.2,1.2h1.6v1.6c0,0.7,0.5,1.2,1.2,1.2c0.7,0,1.2-0.5,1.2-1.2v-1.6h1.6c0.7,0,1.2-0.5,1.2-1.2
		C163.5,388.7,163,388.1,162.3,388.1z"/>
	<path class="st24" d="M267.1,282.7h-1.6v-1.6c0-0.7-0.5-1.2-1.2-1.2c-0.7,0-1.2,0.5-1.2,1.2v1.6h-1.6c-0.7,0-1.2,0.5-1.2,1.2
		c0,0.7,0.5,1.2,1.2,1.2h1.6v1.6c0,0.7,0.5,1.2,1.2,1.2c0.7,0,1.2-0.5,1.2-1.2v-1.6h1.6c0.7,0,1.2-0.5,1.2-1.2
		C268.3,283.2,267.8,282.7,267.1,282.7z"/>
	<path class="st25" d="M209.8,179.8h-1.6v-1.6c0-0.7-0.5-1.2-1.2-1.2c-0.7,0-1.2,0.5-1.2,1.2v1.6h-1.6c-0.7,0-1.2,0.5-1.2,1.2
		c0,0.7,0.5,1.2,1.2,1.2h1.6v1.6c0,0.7,0.5,1.2,1.2,1.2c0.7,0,1.2-0.5,1.2-1.2v-1.6h1.6c0.7,0,1.2-0.5,1.2-1.2
		C211,180.4,210.4,179.8,209.8,179.8z"/>
	<g>
		<circle class="st9" cx="262.6" cy="144.3" r="2.8"/>
		<circle class="st8" cx="201.2" cy="159" r="2.7"/>
		<circle class="st9" cx="219" cy="334.4" r="2.4"/>
		<circle class="st9" cx="290.9" cy="346.2" r="1.9"/>
		<circle class="st9" cx="438.9" cy="278.1" r="2.4"/>
		<circle class="st9" cx="394.4" cy="281.3" r="1.7"/>
		<circle class="st9" cx="98.3" cy="117.8" r="2.1"/>
		<circle class="st9" cx="106.7" cy="184.4" r="1.3"/>
		<circle class="st8" cx="239.7" cy="52.5" r="2.8"/>
		<circle class="st9" cx="177.4" cy="61.1" r="1.3"/>
		<circle class="st0" cx="222.4" cy="118.4" r="2.5"/>
		<circle class="st0" cx="354.8" cy="90.9" r="2.4"/>
		<circle class="st9" cx="388.3" cy="124.4" r="3.8"/>
		<circle class="st9" cx="297.6" cy="293.7" r="4.6"/>
		<circle class="st8" cx="94.8" cy="328.4" r="2.5"/>
		<circle class="st9" cx="70.3" cy="275.4" r="3.6"/>
		<circle class="st9" cx="98.3" cy="279.3" r="2.7"/>
		<circle class="st0" cx="157.2" cy="316.8" r="2.8"/>
		<circle class="st9" cx="231.6" cy="280.7" r="3.2"/>
		<circle class="st9" cx="275.1" cy="357.1" r="2.3"/>
		<circle class="st8" cx="223.3" cy="369.7" r="3.1"/>
		<circle class="st9" cx="330.1" cy="355.2" r="2.3"/>
		<circle class="st9" cx="354.9" cy="316.6" r="2.6"/>
		<circle class="st0" cx="399" cy="344.3" r="3"/>
	</g>
	<g>
		<path class="st26" d="M91.7,219.3v38.1H79.5v-38.1H65.2v-9.8h40.9v9.8H91.7z"/>
		<path class="st26" d="M146.3,234.1v23.2h-11.8v-20c0-4.3-2.5-7-6.5-7c-4.6,0-7.5,3.7-7.5,8.8v18.2h-11.8v-50.7h11.8v20
			c2.6-4.4,6.9-6.6,12.4-6.6C141,220,146.3,225.5,146.3,234.1z"/>
		<path class="st26" d="M187.3,233.3v24.1h-11.6v-4.2c-2.4,3.1-6.3,4.8-11.3,4.8c-7.9,0-12.6-4.8-12.6-11.6c0-7,5-11.1,14.2-11.1
			h9.7v-0.5c0-3.6-2.4-5.8-7.2-5.8c-3.1,0-7.1,1.1-11,3.1l-3.4-7.8c5.7-2.7,10.9-4.2,17.1-4.2C181.4,220,187.2,225,187.3,233.3z
			 M175.7,244.8v-3.3h-7.5c-3.6,0-5.3,1.2-5.3,4c0,2.7,1.9,4.4,5.2,4.4C171.8,249.9,174.9,247.9,175.7,244.8z"/>
		<path class="st26" d="M233.3,234.1v23.2h-11.8v-20c0-4.3-2.5-7-6.5-7c-4.3,0-7,3.1-7.5,7.5v19.5h-11.8v-36.9h11.8v6
			c2.6-4.3,6.8-6.5,12.3-6.6C228,220,233.3,225.5,233.3,234.1z"/>
		<path class="st26" d="M253.9,247.3v10.1h-11.8v-50.7h11.8v26.8l12.2-12.9h13.4l-13.5,14.2l13.9,22.7h-14l-8-14.2L253.9,247.3z"/>
	</g>
	<g>
		<path class="st27" d="M329.7,257.4h-12.1v-15.1l-17.7-32.8h12.2l11.6,20.9l11.3-20.9h12.2l-17.4,32.4V257.4z"/>
		<path class="st27" d="M384.4,238.9c0,11.3-8.1,18.9-20.1,18.9c-12.1,0-20.2-7.5-20.2-18.9c0-11.4,8.1-18.8,20.2-18.8
			C376.3,220.1,384.4,227.5,384.4,238.9z M356,239c0,5.7,3.4,9.6,8.3,9.6c4.9,0,8.2-3.8,8.2-9.6c0-5.7-3.4-9.6-8.2-9.6
			C359.4,229.5,356,233.4,356,239z"/>
		<path class="st27" d="M426.6,257.4h-11.8v-6.1c-2.5,4.4-6.6,6.6-12,6.6c-8,0-13.2-5.5-13.2-14.1v-23.2h11.8v19.9
			c0,4.4,2.4,7,6.2,7c4.5-0.1,7.2-3.8,7.2-8.8v-18.2h11.8V257.4z"/>
	</g>
</g>
</svg>
